<?xml version="1.0" standalone="no"?>
<!DOCTYPE svg PUBLIC "-//W3C//DTD SVG 20010904//EN"
 "http://www.w3.org/TR/2001/REC-SVG-20010904/DTD/svg10.dtd">
<svg version="1.0" xmlns="http://www.w3.org/2000/svg"
 width="700.000000pt" height="700.000000pt" viewBox="0 0 700.000000 700.000000"
 preserveAspectRatio="xMidYMid meet">

<g transform="translate(0.000000,700.000000) scale(0.100000,-0.100000)"
fill="#000000" stroke="none">
<path d="M3275 6620 c-102 -27 -151 -46 -235 -91 -208 -113 -384 -283 -550
-534 -70 -107 -176 -305 -163 -305 4 0 49 12 98 25 287 81 695 144 928 145
l57 0 0 390 0 390 -32 -1 c-18 0 -64 -9 -103 -19z"/>
<path d="M3590 6251 l0 -391 58 0 c232 -1 640 -64 927 -145 50 -13 94 -25 98
-25 14 0 -93 198 -173 318 -122 184 -259 332 -406 438 -133 96 -321 175 -449
190 l-55 7 0 -392z"/>
<path d="M2610 6482 c-583 -233 -1050 -667 -1317 -1222 -40 -83 -113 -260
-113 -274 0 -3 42 36 93 87 115 116 218 199 359 294 103 68 346 195 429 224
28 9 39 20 48 48 29 83 156 326 224 429 95 141 178 244 294 360 51 50 89 92
85 92 -4 0 -50 -18 -102 -38z"/>
<path d="M4387 6413 c121 -123 256 -299 339 -438 56 -97 140 -268 164 -336 10
-27 22 -39 49 -49 68 -24 239 -108 336 -164 139 -83 315 -218 438 -339 59 -58
107 -103 107 -101 0 18 -81 209 -129 304 -247 492 -642 882 -1131 1117 -82 39
-260 113 -274 113 -2 0 43 -48 101 -107z"/>
<path d="M3290 5684 c-319 -27 -484 -51 -696 -103 -149 -37 -345 -99 -361
-114 -16 -17 -80 -221 -118 -382 -74 -310 -99 -536 -99 -890 0 -361 30 -609
110 -930 34 -134 93 -317 107 -332 14 -13 193 -71 315 -102 616 -157 1288
-157 1904 0 122 31 301 89 315 102 13 14 71 193 102 315 157 616 157 1288 0
1904 -31 122 -89 301 -102 315 -15 14 -198 73 -332 107 -157 39 -347 73 -505
91 -137 15 -542 27 -640 19z m-840 -874 l0 -260 -85 0 -85 0 0 260 0 260 85 0
85 0 0 -260z m471 232 c188 -98 184 -363 -6 -465 -31 -17 -58 -22 -115 -22
-57 0 -84 5 -115 22 -192 103 -194 372 -3 467 75 37 166 36 239 -2z m399 -232
l0 -260 -85 0 -85 0 0 260 0 260 85 0 85 0 0 -260z m466 240 c99 -48 163 -165
149 -269 -8 -59 -54 -142 -98 -175 -95 -73 -229 -73 -324 0 -44 33 -90 116
-98 175 -14 104 50 220 148 268 58 29 164 29 223 1z m599 6 c127 -54 193 -197
150 -327 -24 -71 -93 -140 -164 -164 -130 -43 -273 23 -327 150 -34 82 -9 212
54 279 64 68 202 97 287 62z m425 -246 l0 -260 -85 0 -85 0 0 260 0 260 85 0
85 0 0 -260z m-2267 -366 c104 -35 174 -147 165 -262 -10 -135 -105 -230 -240
-240 -240 -18 -373 272 -202 442 71 72 177 94 277 60z m599 6 c57 -16 119 -69
150 -129 58 -110 27 -254 -70 -328 -130 -99 -316 -55 -395 92 -17 31 -22 58
-22 115 0 57 5 84 22 115 61 114 190 169 315 135z m644 -14 c86 -40 154 -144
154 -236 0 -51 -30 -126 -67 -169 -132 -155 -391 -101 -448 93 -19 62 -19 90
0 152 32 108 136 184 250 184 42 0 75 -7 111 -24z m414 -236 l0 -260 -85 0
-85 0 0 260 0 260 85 0 85 0 0 -260z m443 244 c104 -35 174 -147 165 -262 -10
-135 -105 -230 -240 -240 -240 -18 -373 272 -202 442 71 72 177 94 277 60z
m-2193 -859 l0 -265 -85 0 -85 0 0 265 0 265 85 0 85 0 0 -265z m260 0 l0
-265 -85 0 -85 0 0 265 0 265 85 0 85 0 0 -265z m479 230 c87 -48 131 -124
131 -227 0 -151 -107 -257 -258 -258 -104 0 -179 43 -228 132 -25 46 -29 64
-29 129 0 67 4 81 30 124 80 129 225 170 354 100z m399 -227 l-3 -263 -85 0
-85 0 -3 263 -2 262 90 0 90 0 -2 -262z m476 228 c190 -111 174 -387 -29 -472
-82 -34 -212 -9 -279 54 -65 61 -96 196 -65 279 55 148 240 217 373 139z m601
6 c147 -75 191 -264 92 -394 -100 -131 -314 -131 -414 0 -111 146 -42 355 137
413 41 14 142 3 185 -19z"/>
<path d="M2747 4880 c-64 -50 -31 -149 50 -150 45 0 62 9 79 42 29 57 -13 128
-76 128 -15 0 -39 -9 -53 -20z"/>
<path d="M3635 4888 c-78 -45 -49 -158 40 -158 90 0 118 116 38 158 -27 15
-52 15 -78 0z"/>
<path d="M4229 4871 c-57 -58 -23 -141 59 -141 51 0 82 32 82 84 0 80 -84 114
-141 57z"/>
<path d="M2409 4275 c-14 -8 -32 -28 -39 -45 -17 -42 5 -91 49 -110 67 -28
139 43 111 110 -12 30 -55 60 -82 60 -7 -1 -25 -7 -39 -15z"/>
<path d="M3025 4279 c-32 -18 -45 -40 -45 -75 0 -46 9 -63 42 -80 84 -43 168
60 106 130 -26 30 -74 41 -103 25z"/>
<path d="M3620 4262 c-37 -38 -40 -80 -6 -118 49 -58 146 -20 146 56 0 38 -37
78 -77 86 -27 5 -37 1 -63 -24z"/>
<path d="M4509 4275 c-14 -8 -32 -28 -39 -45 -17 -42 5 -91 49 -110 67 -28
139 43 111 110 -12 30 -55 60 -82 60 -7 -1 -25 -7 -39 -15z"/>
<path d="M3002 3647 c-49 -52 -12 -147 58 -147 43 0 90 47 90 90 0 71 -99 109
-148 57z"/>
<path d="M3875 3645 c-35 -34 -33 -78 4 -116 58 -57 141 -23 141 59 0 76 -91
112 -145 57z"/>
<path d="M4499 3657 c-46 -35 -47 -101 -2 -137 73 -57 172 25 129 108 -8 16
-23 32 -31 36 -27 10 -79 6 -96 -7z"/>
<path d="M1893 5320 c-347 -182 -607 -426 -741 -695 -38 -76 -80 -210 -88
-280 l-7 -55 392 0 391 0 0 58 c1 232 61 623 142 915 16 60 28 110 26 112 -2
2 -54 -22 -115 -55z"/>
<path d="M4990 5376 c0 -2 20 -82 45 -178 69 -268 107 -514 121 -777 l7 -131
390 0 390 0 -7 57 c-9 77 -59 222 -108 315 -105 196 -281 379 -518 537 -103
69 -320 189 -320 177z"/>
<path d="M1064 4055 c15 -128 94 -316 190 -449 106 -147 254 -284 438 -406
120 -80 318 -187 318 -173 0 4 -12 49 -25 98 -81 287 -144 695 -145 928 l0 57
-391 0 -392 0 7 -55z"/>
<path d="M5156 3979 c-14 -263 -52 -509 -121 -777 -25 -96 -45 -176 -45 -178
0 -8 164 78 251 132 269 166 480 377 591 590 47 88 95 232 104 307 l7 57 -390
0 -390 0 -7 -131z"/>
<path d="M1180 3414 c0 -14 74 -192 113 -274 235 -489 625 -884 1117 -1131 95
-48 286 -129 304 -129 2 0 -43 48 -101 107 -121 123 -256 299 -339 438 -56 97
-140 268 -164 336 -10 27 -22 39 -49 49 -68 24 -239 108 -336 164 -139 83
-315 218 -438 339 -59 58 -107 103 -107 101z"/>
<path d="M5725 3326 c-206 -208 -490 -397 -750 -502 l-71 -28 -28 -71 c-105
-260 -292 -541 -504 -752 -51 -51 -90 -93 -87 -93 18 0 206 79 298 125 489
245 863 618 1108 1105 54 107 134 299 127 305 -2 1 -44 -39 -93 -89z"/>
<path d="M2372 2608 c169 -330 415 -602 666 -736 93 -49 238 -99 315 -108 l57
-7 0 390 0 390 -131 7 c-263 14 -509 52 -777 121 -96 25 -176 45 -178 45 -3 0
19 -46 48 -102z"/>
<path d="M4530 2674 c-255 -70 -544 -116 -807 -130 l-133 -7 0 -390 0 -390 57
7 c75 9 219 57 307 104 161 84 347 250 477 425 112 150 264 418 237 416 -7 -1
-69 -16 -138 -35z"/>
</g>
</svg>
