<?xml version="1.0" standalone="no"?>
<!DOCTYPE svg PUBLIC "-//W3C//DTD SVG 20010904//EN"
 "http://www.w3.org/TR/2001/REC-SVG-20010904/DTD/svg10.dtd">
<svg version="1.0" xmlns="http://www.w3.org/2000/svg"
 width="700.000000pt" height="700.000000pt" viewBox="0 0 700.000000 700.000000"
 preserveAspectRatio="xMidYMid meet">

<g transform="translate(0.000000,700.000000) scale(0.100000,-0.100000)"
fill="#000000" stroke="none">
<path d="M3735 6970 c-49 -4 -479 -8 -955 -9 -944 -1 -931 0 -1030 -58 -69
-41 -144 -117 -179 -183 -64 -120 -61 30 -61 -2493 0 -1926 -2 -2303 -14
-2331 -20 -48 -75 -107 -121 -127 -53 -24 -147 -24 -201 0 -49 22 -111 92
-124 140 -6 23 -10 520 -10 1370 0 1329 0 1335 -21 1377 -54 112 -212 114
-270 4 -18 -33 -19 -90 -19 -1376 0 -907 3 -1359 11 -1400 27 -151 141 -306
278 -378 136 -71 -52 -66 2508 -64 l2308 3 63 24 c145 54 281 190 333 333 21
58 23 82 27 326 2 144 6 262 9 262 2 0 46 -41 96 -91 110 -109 155 -134 248
-133 54 0 75 5 120 30 124 70 171 220 108 346 -13 27 -122 144 -300 323 l-279
280 0 1712 c0 1685 0 1712 -20 1776 -44 143 -158 258 -304 310 -21 8 -348 13
-1006 18 -536 4 -1004 9 -1040 12 -36 3 -105 1 -155 -3z m-946 -360 c-330
-246 -584 -648 -669 -1057 -111 -540 30 -1105 380 -1521 l61 -72 -112 0 c-82
0 -120 -4 -145 -16 -102 -49 -111 -197 -15 -261 33 -23 39 -23 331 -23 l297 0
134 -68 c198 -101 382 -159 592 -187 362 -47 714 14 1046 182 l144 73 169 0
168 0 0 -57 c0 -92 30 -143 159 -268 61 -60 111 -111 111 -114 0 -3 -702 -6
-1559 -6 l-1560 0 -28 -21 c-97 -72 -97 -186 0 -258 l28 -21 1557 -2 1557 -3
39 23 c51 28 79 77 79 134 l0 44 199 -198 198 -198 0 -393 c0 -433 0 -435 -63
-501 -18 -18 -50 -42 -72 -52 -39 -18 -113 -19 -2044 -19 -1904 0 -2003 1
-1996 18 4 9 16 48 26 86 18 67 19 152 19 2375 0 2226 1 2308 19 2341 10 19
33 45 51 58 l33 22 460 0 461 0 -55 -40z m1824 14 c29 -15 90 -51 137 -82 370
-240 613 -594 712 -1039 19 -84 22 -129 22 -318 1 -191 -2 -233 -22 -322 -12
-56 -27 -114 -32 -128 l-10 -25 -1545 0 -1545 0 -10 25 c-5 14 -20 72 -32 128
-20 89 -23 131 -22 322 0 189 3 234 22 318 108 484 385 860 812 1099 l85 48
688 0 688 0 52 -26z m1294 -17 l38 -37 3 -1557 2 -1557 -182 180 c-101 100
-190 185 -198 190 -8 5 -24 27 -35 49 -11 22 -35 50 -54 62 -31 21 -45 23
-163 23 l-129 0 61 72 c79 94 153 206 229 348 140 258 213 647 182 960 -25
241 -73 414 -176 625 -127 261 -306 482 -525 646 l-53 40 481 -3 482 -3 37
-38z m-617 -2204 c0 -14 -73 -127 -132 -205 -31 -42 -93 -112 -138 -157 l-80
-81 -1064 0 -1065 0 -83 83 c-46 46 -108 117 -139 158 -57 76 -129 189 -129
202 0 4 637 7 1415 7 778 0 1415 -3 1415 -7z m-920 -760 c-62 -27 -241 -62
-370 -72 -200 -16 -496 18 -620 72 -32 14 11 15 495 15 484 0 527 -1 495 -15z"/>
<path d="M2310 2448 c-56 -29 -81 -64 -87 -121 -7 -58 24 -116 77 -146 l38
-21 1560 2 1561 3 28 21 c91 68 87 201 -9 259 -33 20 -53 20 -1578 23 l-1545
2 -45 -22z"/>
<path d="M2644 6002 c-92 -32 -151 -98 -180 -201 -23 -78 -16 -268 13 -332 28
-63 84 -123 139 -148 88 -42 233 -37 329 11 76 39 75 35 75 195 l0 143 -135 0
-135 0 0 -55 0 -55 65 0 65 0 0 -59 c0 -75 -12 -85 -104 -89 -89 -4 -127 17
-159 86 -18 38 -22 66 -22 152 0 174 38 241 143 247 73 5 101 -10 131 -69 l23
-48 64 0 c73 0 76 4 49 81 -20 55 -67 106 -123 131 -63 28 -174 33 -238 10z"/>
<path d="M3315 6011 c-90 -23 -159 -83 -171 -146 -23 -123 44 -203 217 -260
43 -15 93 -36 111 -49 29 -19 33 -27 33 -65 0 -36 -5 -47 -27 -64 -33 -25
-107 -28 -157 -8 -31 14 -61 55 -61 86 0 12 -13 15 -70 15 -69 0 -70 0 -70
-27 0 -46 39 -111 85 -143 113 -78 308 -76 394 3 29 27 61 93 61 127 0 98 -64
171 -192 219 -45 17 -102 40 -126 51 -104 48 -68 152 53 152 60 0 103 -25 113
-65 l8 -32 73 -3 73 -3 -7 33 c-18 80 -53 125 -122 158 -51 24 -166 35 -218
21z"/>
<path d="M3720 5950 l0 -60 105 0 105 0 0 -295 0 -295 70 0 70 0 0 295 0 295
110 0 110 0 0 60 0 60 -285 0 -285 0 0 -60z"/>
<path d="M4390 5655 l0 -355 70 0 70 0 0 355 0 355 -70 0 -70 0 0 -355z"/>
<path d="M4670 5655 l0 -355 70 0 70 0 0 231 c0 140 4 228 9 224 6 -3 71 -107
146 -230 l137 -225 69 0 69 0 0 355 0 355 -70 0 -70 0 -2 -231 -3 -232 -140
231 -140 231 -72 1 -73 0 0 -355z"/>
</g>
</svg>
